<svg width="375" height="72" viewBox="0 0 375 72" fill="none" xmlns="http://www.w3.org/2000/svg">
	<path
		d="M-114 4.14331C-111.006 4.87009 -107.932 5.88946 -104.716 7.17488C-99.335 9.32563 -93.954 11.4764 -88.5731 11.961C-83.6361 12.4056 -78.0096 10.2499 -71.3719 7.70667C-62.9995 4.49884 -53.0182 0.67457 -40.7823 0.67457C-32.0441 0.67457 -24.549 3.27521 -17.3315 5.77956C-6.42975 9.56224 3.83881 13.1252 16.8017 7.17488C38.3467 -2.71493 51.8613 -2.44183 69.6849 8.37392C87.5085 19.1897 102.032 17.1694 113.887 12.2475C115.036 11.7708 116.172 11.2712 117.301 10.7752C121.8 8.79738 126.171 6.87641 130.634 6.68902C136.889 6.38883 143.145 9.11624 149.4 11.8437C154.309 13.9839 159.218 16.1242 164.127 16.8014C170.335 17.658 176.543 16.1536 182.752 14.6492C187.708 13.4483 192.663 12.2475 197.619 12.2475C202.776 12.2475 207.933 13.5479 213.09 14.8482C219.098 16.363 225.105 17.8777 231.112 17.3372C236.493 16.853 241.874 14.7042 247.255 12.5554C253.038 10.2459 258.821 7.9364 264.605 7.69356C273.144 7.28374 280.518 9.5256 287.873 11.762C296.917 14.512 305.935 17.2538 317.061 15.0468C323.074 13.8541 328.822 11.9266 334.494 10.0247C348.025 5.48798 361.12 1.09722 376.326 7.17488C381.707 9.32563 387.087 11.4764 392.468 11.961C398.476 12.502 404.483 10.9859 410.49 9.46982C421.298 6.7421 429.997 6.64359 440.829 9.27061C447.037 10.7763 453.245 12.2821 459.454 11.4247C464.363 10.7469 469.271 8.60473 474.18 6.46256C487.67 0.575535 496.472 0.55596 509.693 6.86673C510.91 7.4478 512.174 8.09751 513.464 8.76072C518.09 11.1386 523.054 13.69 527.419 13.8734C560.549 13.8734 560.539 14.7841 560.068 58.2765C560.004 64.1514 559.932 70.8032 559.932 78.3347L-114 78.3346V4.14331Z"
		fill="#006DD2" fill-opacity="0.45" />
	<path
		d="M-114 9.85415C-111.006 10.6099 -107.932 11.6698 -104.716 13.0064C-99.335 15.2428 -93.954 17.4792 -88.5731 17.9831C-83.6361 18.4455 -78.0096 16.2039 -71.3719 13.5594C-62.9995 10.2238 -53.0182 6.24727 -40.7823 6.24727C-32.0441 6.24727 -24.549 8.95148 -17.3315 11.5556C-6.42975 15.4889 3.83881 19.1938 16.8017 13.0064C38.3467 2.72279 51.8613 3.00677 69.6849 14.2532C87.5085 25.4997 102.032 23.399 113.887 18.2811C115.036 17.7854 116.172 17.2659 117.301 16.7501C121.8 14.6936 126.171 12.6961 130.634 12.5012C136.889 12.1891 143.145 15.0251 149.4 17.8611C154.309 20.0866 159.218 22.3121 164.127 23.0163C170.335 23.907 176.543 22.3427 182.752 20.7784C187.708 19.5297 192.663 18.2811 197.619 18.2811C202.776 18.2811 207.933 19.6332 213.09 20.9854C219.098 22.5604 225.105 24.1355 231.112 23.5734C236.493 23.07 241.874 20.8356 247.255 18.6012C253.038 16.1997 258.821 13.7983 264.605 13.5458C273.144 13.1196 280.518 15.4508 287.873 17.7762C296.917 20.6358 305.935 23.4867 317.061 21.1918C323.074 19.9516 328.822 17.9474 334.494 15.9698C348.025 11.2524 361.12 6.68676 376.326 13.0064C381.707 15.2428 387.087 17.4792 392.468 17.9831C398.476 18.5457 404.483 16.9692 410.49 15.3928C421.298 12.5564 429.997 12.454 440.829 15.1856C447.037 16.7513 453.245 18.317 459.454 17.4256C464.363 16.7207 469.271 14.4932 474.18 12.2658C487.67 6.14429 496.472 6.12394 509.693 12.686C510.91 13.2902 512.174 13.9658 513.464 14.6554C518.09 17.128 523.054 19.781 527.419 19.9717C560.549 19.9717 560.539 20.9187 560.068 66.1431C560.004 72.2519 559.932 79.1686 559.932 87L-114 87V9.85415Z"
		fill="#006DD2" fill-opacity="0.55" />
	<path
		d="M560.163 8.75416C557.169 9.31693 554.095 10.1063 550.879 11.1016C545.498 12.767 540.117 14.4324 534.736 14.8077C529.799 15.1519 524.173 13.4827 517.535 11.5134C509.163 9.02945 499.182 6.06818 486.946 6.06818C478.207 6.06818 470.712 8.08195 463.495 10.0212C452.593 12.9502 442.325 15.7092 429.362 11.1016C407.817 3.44357 394.302 3.65504 376.478 12.0301C358.655 20.4051 344.131 18.8407 332.276 15.0295C331.128 14.6604 329.991 14.2735 328.863 13.8895C324.363 12.358 319.993 10.8705 315.53 10.7254C309.274 10.4929 303.019 12.6049 296.763 14.7168C291.854 16.3741 286.945 18.0314 282.037 18.5558C275.828 19.219 269.62 18.0541 263.412 16.8893C258.456 15.9594 253.5 15.0295 248.544 15.0295C243.387 15.0295 238.23 16.0364 233.073 17.0434C227.066 18.2163 221.059 19.3892 215.051 18.9706C209.67 18.5957 204.289 16.9318 198.909 15.2679C193.125 13.4796 187.342 11.6913 181.559 11.5032C173.019 11.1859 165.646 12.9219 158.29 14.6536C149.246 16.783 140.228 18.9061 129.102 17.1971C123.09 16.2735 117.341 14.781 111.669 13.3084C98.1385 9.79538 85.0435 6.39546 69.8378 11.1016C64.4568 12.767 59.0758 14.4324 53.6949 14.8077C47.6877 15.2266 41.6806 14.0526 35.6734 12.8787C24.8654 10.7665 16.1664 10.6902 5.33465 12.7244C-0.873756 13.8903 -7.08215 15.0563 -13.2906 14.3924C-18.1993 13.8675 -23.1081 12.2088 -28.0168 10.55C-41.5069 5.9915 -50.3082 5.97634 -63.5296 10.863C-64.747 11.3129 -66.0109 11.816 -67.3012 12.3296C-71.9271 14.1708 -76.8906 16.1465 -81.2553 16.2885C-114.386 16.2885 -114.376 16.9937 -113.905 50.6714C-113.841 55.2206 -113.769 60.3713 -113.769 66.2032L560.163 66.2032V8.75416Z"
		fill="#945900" fill-opacity="0.65" />
	<path
		d="M560.163 12.8087C557.169 13.5354 554.095 14.5548 550.879 15.8402C545.498 17.991 540.117 20.1417 534.736 20.6263C529.799 21.0709 524.173 18.9152 517.535 16.372C509.163 13.1642 499.182 9.33991 486.946 9.33991C478.207 9.33991 470.712 11.9406 463.495 14.4449C452.593 18.2276 442.325 21.7906 429.362 15.8402C407.817 5.95041 394.302 6.22352 376.478 17.0393C358.655 27.855 344.131 25.8347 332.276 20.9128C331.128 20.4361 329.991 19.9365 328.863 19.4405C324.363 17.4627 319.993 15.5418 315.53 15.3544C309.274 15.0542 303.019 17.7816 296.763 20.509C291.854 22.6493 286.945 24.7895 282.037 25.4668C275.828 26.3233 269.62 24.8189 263.412 23.3146C258.456 22.1137 253.5 20.9128 248.544 20.9128C243.387 20.9128 238.23 22.2132 233.073 23.5136C227.066 25.0283 221.059 26.543 215.051 26.0025C209.67 25.5183 204.289 23.3695 198.909 21.2207C193.125 18.9112 187.342 16.6017 181.559 16.3589C173.019 15.9491 165.646 18.1909 158.29 20.4273C149.246 23.1774 140.228 25.9191 129.102 23.7121C123.09 22.5194 117.341 20.5919 111.669 18.6901C98.1385 14.1533 85.0435 9.76257 69.8378 15.8402C64.4568 17.991 59.0758 20.1417 53.6949 20.6263C47.6877 21.1673 41.6806 19.6512 35.6734 18.1352C24.8654 15.4074 16.1664 15.3089 5.33465 17.936C-0.873756 19.4417 -7.08215 20.9474 -13.2906 20.0901C-18.1993 19.4122 -23.1081 17.2701 -28.0168 15.1279C-41.5069 9.24088 -50.3082 9.2213 -63.5296 15.5321C-64.747 16.1131 -66.0109 16.7629 -67.3012 17.4261C-71.9271 19.8039 -76.8906 22.3553 -81.2553 22.5388C-114.386 22.5388 -114.376 23.4495 -113.905 66.9418C-113.841 72.8167 -113.769 79.4685 -113.769 87L560.163 87V12.8087Z"
		fill="#006DD2" />
</svg>