<svg width="1920" height="126" viewBox="0 0 1920 126" fill="none" xmlns="http://www.w3.org/2000/svg">
	<path
		d="M-12 11.9537C-3.36194 14.0505 5.50684 16.9914 14.7852 20.6999C30.3094 26.905 45.8337 33.11 61.3583 34.5081C75.6017 35.7909 91.8342 29.5715 110.984 22.2342C135.139 12.9794 163.936 1.94617 199.237 1.94617C224.448 1.94617 246.071 9.44917 266.894 16.6744C298.346 27.5876 327.972 37.867 365.37 20.6999C427.529 -7.83274 466.52 -7.04481 517.942 24.1592C569.364 55.3633 611.265 49.5347 645.468 35.3347C648.781 33.9594 652.06 32.5181 655.316 31.0871C668.298 25.381 680.906 19.8389 693.782 19.2982C711.83 18.4321 729.877 26.3009 747.925 34.1696C762.087 40.3444 776.249 46.5191 790.411 48.473C808.323 50.9443 826.234 46.604 844.146 42.2638C858.444 38.7993 872.742 35.3347 887.04 35.3347C901.918 35.3347 916.797 39.0864 931.675 42.838C949.006 47.2081 966.337 51.5781 983.668 50.0187C999.192 48.6219 1014.72 42.4224 1030.24 36.2229C1046.93 29.56 1063.61 22.897 1080.3 22.1964C1104.93 21.014 1126.21 27.4819 1147.43 33.934C1173.52 41.868 1199.54 49.7782 1231.64 43.4108C1248.98 39.9698 1265.57 34.4089 1281.93 28.9219C1320.97 15.8331 1358.75 3.16555 1402.62 20.6999C1418.14 26.905 1433.67 33.11 1449.19 34.5081C1466.52 36.0689 1483.85 31.695 1501.18 27.321C1532.37 19.4513 1557.46 19.1672 1588.71 26.7463C1606.62 31.0904 1624.54 35.4345 1642.45 32.961C1656.61 31.0054 1670.77 24.8251 1684.93 18.6449C1723.85 1.66045 1749.25 1.60398 1787.39 19.8109C1790.9 21.4873 1794.55 23.3618 1798.27 25.2752C1811.62 32.1355 1825.94 39.4964 1838.53 40.0256C1934.11 40.0256 1934.08 42.6531 1932.72 168.131C1932.54 185.08 1932.33 204.271 1932.33 226L-12 226V11.9537Z"
		fill="#006DD2" fill-opacity="0.45" />
	<path
		d="M-12 28.4297C-3.36194 30.61 5.50684 33.6681 14.7852 37.5243C30.3094 43.9764 45.8337 50.4285 61.3583 51.8823C75.6017 53.2162 91.8342 46.7491 110.984 39.1196C135.139 29.4963 163.936 18.0237 199.237 18.0237C224.448 18.0237 246.071 25.8255 266.894 33.3384C298.346 44.6862 327.972 55.375 365.37 37.5243C427.529 7.85534 466.52 8.67465 517.942 41.1213C569.364 73.568 611.265 67.5073 645.468 52.7418C648.781 51.3117 652.06 49.813 655.316 48.3251C668.298 42.3917 680.906 36.6289 693.782 36.0667C711.83 35.1662 729.877 43.3483 747.925 51.5304C762.087 57.951 776.249 64.3717 790.411 66.4034C808.323 68.973 826.234 64.4599 844.146 59.9469C858.444 56.3444 872.742 52.7418 887.04 52.7418C901.918 52.7418 916.797 56.6429 931.675 60.544C949.006 65.0881 966.337 69.6321 983.668 68.0106C999.192 66.5581 1014.72 60.1118 1030.24 53.6654C1046.93 46.7371 1063.61 39.8088 1080.3 39.0803C1104.93 37.8509 1126.21 44.5763 1147.43 51.2854C1173.52 59.5353 1199.54 67.7605 1231.64 61.1396C1248.98 57.5615 1265.57 51.7791 1281.93 46.0737C1320.97 32.4637 1358.75 19.2916 1402.62 37.5243C1418.14 43.9764 1433.67 50.4285 1449.19 51.8823C1466.52 53.5053 1483.85 48.9571 1501.18 44.409C1532.37 36.226 1557.46 35.9304 1588.71 43.8114C1606.62 48.3285 1624.54 52.8456 1642.45 50.2737C1656.61 48.2401 1670.77 41.8138 1684.93 35.3874C1723.85 17.7266 1749.25 17.6679 1787.39 36.5998C1790.9 38.343 1794.55 40.2921 1798.27 42.2817C1811.62 49.4152 1825.94 57.0692 1838.53 57.6196C1934.11 57.6196 1934.08 60.3516 1932.72 190.827C1932.54 208.451 1932.33 228.406 1932.33 251L-12 251V28.4297Z"
		fill="#006DD2" fill-opacity="0.55" />
	<path
		d="M1933 25.2562C1924.36 26.8798 1915.49 29.1571 1906.21 32.0287C1890.69 36.8335 1875.17 41.6383 1859.64 42.7209C1845.4 43.7142 1829.17 38.8983 1810.02 33.2167C1785.86 26.0504 1757.06 17.507 1721.76 17.507C1696.55 17.507 1674.93 23.3168 1654.11 28.9116C1622.65 37.3621 1593.03 45.3218 1555.63 32.0287C1493.47 9.93483 1454.48 10.545 1403.06 34.7074C1351.64 58.8698 1309.73 54.3565 1275.53 43.3609C1272.22 42.296 1268.94 41.1799 1265.68 40.0719C1252.7 35.6534 1240.09 31.3619 1227.22 30.9433C1209.17 30.2727 1191.12 36.3657 1173.08 42.4588C1158.91 47.2401 1144.75 52.0215 1130.59 53.5344C1112.68 55.448 1094.77 52.0872 1076.85 48.7264C1062.56 46.0437 1048.26 43.3609 1033.96 43.3609C1019.08 43.3609 1004.2 46.266 989.325 49.171C971.994 52.5549 954.663 55.9388 937.332 54.7313C921.808 53.6497 906.283 48.8492 890.759 44.0487C874.074 38.8893 857.389 33.73 840.704 33.1874C816.066 32.2719 794.794 37.2802 773.573 42.2764C747.479 48.4199 721.464 54.545 689.365 49.6146C672.018 46.9501 655.433 42.644 639.068 38.3953C600.032 28.2602 562.252 18.4512 518.382 32.0287C502.858 36.8335 487.334 41.6383 471.809 42.7209C454.478 43.9295 437.147 40.5425 419.816 37.1556C388.635 31.0619 363.537 30.8418 332.287 36.7106C314.376 40.0744 296.464 43.4382 278.553 41.5229C264.39 40.0086 250.228 35.223 236.066 30.4374C197.147 17.2857 171.754 17.242 133.61 31.3403C130.098 32.6384 126.451 34.0899 122.729 35.5715C109.383 40.8837 95.0629 46.5835 82.4703 46.9933C-13.1135 46.9933 -13.085 49.0278 -11.7245 146.19C-11.5408 159.314 -11.3327 174.175 -11.3327 191L1933 191V25.2562Z"
		fill="#945900" fill-opacity="0.65" />
	<path
		d="M1933 36.9537C1924.36 39.0505 1915.49 41.9914 1906.21 45.6999C1890.69 51.905 1875.17 58.11 1859.64 59.5081C1845.4 60.7909 1829.17 54.5715 1810.02 47.2342C1785.86 37.9794 1757.06 26.9462 1721.76 26.9462C1696.55 26.9462 1674.93 34.4492 1654.11 41.6744C1622.65 52.5876 1593.03 62.867 1555.63 45.6999C1493.47 17.1673 1454.48 17.9552 1403.06 49.1592C1351.64 80.3633 1309.73 74.5347 1275.53 60.3347C1272.22 58.9594 1268.94 57.5181 1265.68 56.0871C1252.7 50.381 1240.09 44.8389 1227.22 44.2982C1209.17 43.4321 1191.12 51.3009 1173.08 59.1696C1158.91 65.3444 1144.75 71.5191 1130.59 73.473C1112.68 75.9443 1094.77 71.604 1076.85 67.2638C1062.56 63.7993 1048.26 60.3347 1033.96 60.3347C1019.08 60.3347 1004.2 64.0864 989.325 67.838C971.994 72.2081 954.663 76.5781 937.332 75.0187C921.808 73.6219 906.283 67.4224 890.759 61.2229C874.074 54.56 857.389 47.897 840.704 47.1964C816.066 46.014 794.794 52.4819 773.573 58.934C747.479 66.868 721.464 74.7782 689.365 68.4108C672.018 64.9698 655.433 59.4089 639.068 53.9219C600.032 40.8331 562.252 28.1656 518.382 45.6999C502.858 51.905 487.334 58.11 471.809 59.5081C454.478 61.0689 437.147 56.695 419.816 52.321C388.635 44.4513 363.537 44.1672 332.287 51.7463C314.376 56.0904 296.464 60.4345 278.553 57.961C264.39 56.0054 250.228 49.8251 236.066 43.6449C197.147 26.6605 171.754 26.604 133.61 44.8109C130.098 46.4873 126.451 48.3618 122.729 50.2752C109.383 57.1355 95.0629 64.4964 82.4703 65.0256C-13.1135 65.0256 -13.085 67.6531 -11.7245 193.131C-11.5408 210.08 -11.3327 229.271 -11.3327 251L1933 251V36.9537Z"
		fill="#006DD2" />
</svg>