<svg width="233" height="199" viewBox="0 0 233 199" fill="none" xmlns="http://www.w3.org/2000/svg">
<g clip-path="url(#clip0_90_2169)">
<path fill-rule="evenodd" clip-rule="evenodd" d="M117.664 35.6335C117.664 32.2035 119.911 31.0801 122.667 33.1321L149.897 53.4577C152.638 55.5097 152.204 57.9811 148.909 58.9397L123.61 66.3839C120.33 67.3425 117.634 65.3354 117.649 61.9054L117.679 35.6335H117.664Z" fill="#F48A77"/>
<path fill-rule="evenodd" clip-rule="evenodd" d="M122.352 76.9136C120.39 74.0977 121.483 71.0122 124.764 70.0536L150.047 62.6244C153.327 61.6508 155.08 63.5081 153.941 66.7284L142.977 97.5987C141.824 100.834 139.293 101.163 137.33 98.3625L122.367 76.9136H122.352Z" fill="#9E68AC"/>
<path fill-rule="evenodd" clip-rule="evenodd" d="M108.752 32.9224C111.538 30.9303 113.815 32.1136 113.815 35.5287L113.785 61.8155C113.785 65.2456 111.119 67.1628 107.869 66.0843L82.675 57.6965C79.4248 56.6181 79.0503 54.1017 81.8363 52.1096L108.767 32.9224H108.752Z" fill="#FAEE67"/>
<path fill-rule="evenodd" clip-rule="evenodd" d="M77.3873 65.3054C76.3688 62.0401 78.1812 60.2428 81.4314 61.3362L106.64 69.724C109.89 70.8024 110.864 73.9329 108.797 76.6589L92.8748 97.8083C90.8078 100.549 88.2915 100.115 87.258 96.8347L77.3723 65.3054H77.3873Z" fill="#51BC78"/>
<path fill-rule="evenodd" clip-rule="evenodd" d="M125.198 30.2413C122.457 28.1893 122.936 25.8826 126.276 25.1038L149.328 19.7416C152.668 18.9627 155.514 21.1345 155.679 24.5496L156.727 47.7509C156.877 51.166 154.765 52.2894 152.024 50.2523L125.228 30.2413H125.198Z" fill="#F48A77"/>
<path fill-rule="evenodd" clip-rule="evenodd" d="M157.476 68.2112C158.63 64.9909 161.041 64.7213 162.853 67.6271L174.941 87.0539C176.753 89.9597 175.6 93.2849 172.38 94.4532L150.466 102.332C147.246 103.485 145.539 101.793 146.692 98.5722L157.476 68.2112Z" fill="#9E68AC"/>
<path fill-rule="evenodd" clip-rule="evenodd" d="M76.8631 24.3398C77.1177 20.9248 80.0385 18.7979 83.3787 19.6067L105.187 24.9689C108.512 25.7927 108.947 28.0844 106.161 30.0615L79.8588 48.8143C77.0728 50.8065 74.9908 49.6382 75.2454 46.2231L76.8631 24.3398Z" fill="#FAEE67"/>
<path fill-rule="evenodd" clip-rule="evenodd" d="M68.8648 66.4288C70.6022 63.4781 72.864 63.7327 73.8975 67.013L83.5135 97.6885C84.532 100.954 82.7796 102.586 79.6042 101.298L60.1025 93.4197C56.9271 92.1316 55.7438 88.6716 57.4962 85.7209L68.8648 66.4288Z" fill="#51BC78"/>
<path fill-rule="evenodd" clip-rule="evenodd" d="M118.323 8.97215C118.458 5.54212 121.169 3.77469 124.359 5.03286L144.97 13.181C148.16 14.4392 148.025 16.1018 144.7 16.8807L123.835 21.7336C120.495 22.5125 117.874 20.3407 118.009 16.9256L118.323 8.97215Z" fill="#F48A75"/>
<path fill-rule="evenodd" clip-rule="evenodd" d="M159.663 28.0096C159.513 24.5795 161.116 23.9804 163.243 26.6765L177.173 44.276C179.3 46.9571 178.356 49.9827 175.091 51.0012L166.838 53.5475C163.573 54.5511 160.757 52.5889 160.607 49.1589L159.648 28.0096H159.663Z" fill="#F48A75"/>
<path fill-rule="evenodd" clip-rule="evenodd" d="M165.34 64.3319C163.528 61.4261 164.726 58.2207 168.006 57.2022L176.244 54.6559C179.524 53.6524 181.996 55.6145 181.741 59.0296L180.123 81.1075C179.869 84.5226 178.191 84.942 176.379 82.0362L165.355 64.3319H165.34Z" fill="#9E68AC"/>
<path fill-rule="evenodd" clip-rule="evenodd" d="M148.115 113.625C146.123 110.839 147.126 107.619 150.347 106.466L170.553 99.2013C173.773 98.0479 174.881 99.4409 173.024 102.317L160.727 121.264C158.869 124.14 155.709 124.215 153.702 121.429L148.1 113.64L148.115 113.625Z" fill="#9E68AC"/>
<path fill-rule="evenodd" clip-rule="evenodd" d="M111.882 78.9507C113.949 76.2097 117.23 76.2696 119.192 79.0855L134.155 100.534C136.117 103.35 134.919 105.612 131.489 105.567L98.4468 105.133C95.0168 105.088 93.9084 102.811 95.9604 100.07L111.867 78.9507H111.882Z" fill="#11AFD2"/>
<path fill-rule="evenodd" clip-rule="evenodd" d="M96.395 113.745C94.2381 111.079 95.2866 108.937 98.7016 108.982L131.19 109.401C134.62 109.446 135.638 111.648 133.466 114.299L118.982 131.974C116.81 134.625 113.276 134.61 111.119 131.944L96.395 113.745Z" fill="#12A9CB"/>
<path fill-rule="evenodd" clip-rule="evenodd" d="M137.39 115.588C139.562 112.936 142.977 113.041 144.969 115.827L150.556 123.601C152.548 126.387 151.455 129.308 148.13 130.087L126.172 135.239C122.831 136.018 121.888 134.49 124.06 131.839L137.39 115.573V115.588Z" fill="#12A9CB"/>
<path fill-rule="evenodd" clip-rule="evenodd" d="M85.131 115.363C87.0183 112.502 90.3285 112.352 92.4853 115.018L105.846 131.539C108.003 134.206 107.059 135.628 103.764 134.715L83.2287 128.993C79.9335 128.079 78.7802 124.979 80.6675 122.133L85.146 115.378L85.131 115.363Z" fill="#12A9CB"/>
<path fill-rule="evenodd" clip-rule="evenodd" d="M108.917 5.0179C112.122 3.78968 114.623 5.58707 114.489 9.0171L114.174 16.9256C114.039 20.3557 111.208 22.4826 107.883 21.6588L88.0519 16.7908C84.7267 15.967 84.6218 14.3044 87.8272 13.0762L108.917 5.00292V5.0179Z" fill="#FAEE67"/>
<path fill-rule="evenodd" clip-rule="evenodd" d="M69.2992 26.5717C71.456 23.9055 72.9988 24.5196 72.7442 27.9347L71.2763 47.6311C71.0217 51.0462 68.1309 53.0383 64.8506 52.0497L57.8408 49.9527C54.5606 48.9642 53.6319 45.9835 55.7888 43.3174L69.2842 26.5717H69.2992Z" fill="#FAEE67"/>
<path fill-rule="evenodd" clip-rule="evenodd" d="M51.1306 58.026C50.891 54.611 53.3923 52.6189 56.6726 53.6075L63.6974 55.7194C66.9776 56.708 68.2358 59.9283 66.4983 62.879L56.1933 80.3736C54.4558 83.3244 52.8382 82.9499 52.5985 79.5199L51.1306 58.041V58.026Z" fill="#51BC78"/>
<path fill-rule="evenodd" clip-rule="evenodd" d="M59.5634 101.298C57.7511 98.3925 58.8744 97.0594 62.0498 98.3326L79.7392 105.477C82.9146 106.765 83.963 110.15 82.0758 112.996L77.6572 119.677C75.7699 122.537 72.7443 122.493 70.9319 119.572L59.5634 101.268V101.298Z" fill="#51BC78"/>
<path fill-rule="evenodd" clip-rule="evenodd" d="M91.5269 137.186C84.8615 135.134 79.694 132.693 79.9936 131.734C80.0086 131.704 80.0236 131.674 80.0385 131.644L104.124 139.074C104.124 139.103 104.124 139.133 104.109 139.178C103.824 140.137 98.1922 139.253 91.5269 137.201V137.186Z" fill="#12A9CB"/>
<path fill-rule="evenodd" clip-rule="evenodd" d="M138.933 138.025C132.118 139.508 126.426 139.912 126.202 138.924C126.202 138.894 126.187 138.864 126.202 138.819L150.826 133.472C150.841 133.502 150.856 133.532 150.871 133.561C151.096 134.535 145.748 136.542 138.933 138.01V138.025Z" fill="#12A9CB"/>
<path fill-rule="evenodd" clip-rule="evenodd" d="M172.275 113.94C168.366 119.707 164.516 123.93 163.677 123.376C163.647 123.361 163.632 123.331 163.603 123.301L177.757 102.437C177.787 102.452 177.817 102.452 177.847 102.482C178.686 103.036 176.184 108.173 172.275 113.94Z" fill="#9E68AC"/>
<path fill-rule="evenodd" clip-rule="evenodd" d="M187.058 68.0166C186.474 74.9665 185.201 80.5385 184.198 80.4636C184.168 80.4636 184.138 80.4486 184.108 80.4336L186.205 55.315C186.235 55.3001 186.265 55.3 186.309 55.3C187.313 55.3749 187.658 61.0667 187.073 68.0166H187.058Z" fill="#9E68AC"/>
<path fill-rule="evenodd" clip-rule="evenodd" d="M94.9122 3.41523C101.353 0.764074 106.895 -0.643884 107.284 0.284769C107.299 0.314726 107.299 0.344683 107.299 0.374639L83.993 9.99069C83.963 9.96074 83.9481 9.93078 83.9331 9.90082C83.5436 8.97217 88.4415 6.06638 94.8972 3.41523H94.9122Z" fill="#FAEE67"/>
<path fill-rule="evenodd" clip-rule="evenodd" d="M57.017 31.7092C61.3307 26.2271 65.4647 22.2878 66.2586 22.9019C66.2885 22.9169 66.3035 22.9469 66.3185 22.9768L50.7261 42.7781C50.6962 42.7631 50.6662 42.7482 50.6362 42.7332C49.8424 42.1191 52.6883 37.1762 57.002 31.7092H57.017Z" fill="#FAEE67"/>
<path fill-rule="evenodd" clip-rule="evenodd" d="M45.0942 68.0165C44.9444 61.0516 45.6334 55.3749 46.6369 55.3449C46.6669 55.3449 46.6969 55.3449 46.7418 55.3599L47.296 80.5534C47.266 80.5683 47.2361 80.5683 47.2061 80.5683C46.2026 80.5983 45.2589 74.9814 45.1092 68.0016L45.0942 68.0165Z" fill="#51BC78"/>
<path fill-rule="evenodd" clip-rule="evenodd" d="M58.7696 112.936C55.2197 106.945 53.0329 101.658 53.8866 101.133C53.9166 101.118 53.9465 101.104 53.9765 101.104L66.8279 122.792C66.8129 122.822 66.7829 122.837 66.753 122.852C65.8992 123.376 62.3194 118.928 58.7546 112.936H58.7696Z" fill="#51BC78"/>
<path fill-rule="evenodd" clip-rule="evenodd" d="M175.765 31.6193C180.033 37.1313 182.834 42.1041 182.055 42.7332C182.026 42.7482 181.996 42.7631 181.966 42.7781L166.553 22.842C166.568 22.8121 166.598 22.7821 166.613 22.7671C167.407 22.153 171.496 26.1073 175.765 31.6343V31.6193Z" fill="#F48A77"/>
<path fill-rule="evenodd" clip-rule="evenodd" d="M135.278 3.43023C141.719 6.09636 146.632 9.01713 146.258 9.94578C146.243 9.97574 146.228 10.0057 146.198 10.0357L122.921 0.389639C122.921 0.359683 122.936 0.329726 122.936 0.29977C123.311 -0.628884 128.838 0.779075 135.278 3.44521V3.43023Z" fill="#F48A77"/>
</g>
<path d="M3.75873 186.573H7.72862C8.06648 186.573 8.27765 186.362 8.27765 186.024V175.973C8.27765 175.255 8.74221 174.79 9.46017 174.79H10.3048C11.0228 174.79 11.7407 175.17 12.1631 175.761L19.1315 186.108C19.3427 186.404 19.6805 186.573 20.0184 186.573H24.9596C25.2975 186.573 25.4242 186.404 25.213 186.108L17.6111 175.001C17.231 174.41 17.3577 173.861 18.0334 173.523C25.382 169.849 23.8193 157.981 13.7679 157.052C13.2611 157.01 12.5432 157.01 11.3606 157.01H3.42086C3.29417 157.01 3.2097 157.095 3.2097 157.221V186.024C3.2097 186.362 3.42086 186.573 3.75873 186.573ZM8.27765 163.007C8.27765 162.289 8.74221 161.782 9.46017 161.782H12.5432C18.9203 161.782 18.9626 170.018 12.5432 170.018H9.46017C8.74221 170.018 8.27765 169.511 8.27765 168.793V163.007ZM27.0145 157.475L35.9679 173.776C36.3058 174.41 36.5169 175.297 36.5169 176.015V186.024C36.5169 186.362 36.7281 186.573 37.066 186.573H41.0358C41.3737 186.573 41.5849 186.362 41.5849 186.024V174.621C41.5849 174.283 41.4582 173.861 41.3315 173.608L32.4626 157.475C32.3359 157.221 31.998 157.01 31.6601 157.01H27.3102C26.9723 157.01 26.8878 157.221 27.0145 157.475ZM40.6558 167.484L42.7674 171.2C42.9363 171.496 43.1475 171.496 43.3164 171.2L51.0873 157.475C51.2562 157.179 51.1295 157.01 50.7916 157.01H46.4417C46.146 157.01 45.7659 157.221 45.6392 157.475L40.6558 166.555C40.4868 166.85 40.5291 167.23 40.6558 167.484ZM55.661 175.888C55.9144 183.659 61.7847 187.587 67.6129 187.587C73.6099 187.587 79.5648 183.49 79.5648 175.339V157.559C79.5648 157.221 79.3114 157.01 79.0158 157.01H75.0459C74.708 157.01 74.4968 157.221 74.4968 157.559V175.339C74.4968 179.942 71.076 182.265 67.6129 182.265C64.3187 182.265 60.9823 180.111 60.7289 175.888C60.6867 175.55 60.5177 175.339 60.1799 175.339H56.21C55.8721 175.339 55.661 175.55 55.661 175.888ZM55.661 170.187C55.661 170.525 55.8721 170.736 56.21 170.736H60.1799C60.5177 170.736 60.7289 170.525 60.7289 170.187V157.559C60.7289 157.221 60.5177 157.01 60.1799 157.01H56.21C55.8721 157.01 55.661 157.221 55.661 157.559V170.187ZM85.5721 157.559V186.024C85.5721 186.362 85.7832 186.573 86.1211 186.573H90.091C90.4289 186.573 90.64 186.362 90.64 186.024V179.098C90.64 178.38 90.9357 177.535 91.4002 176.986L106.984 157.432C107.195 157.179 107.111 157.01 106.773 157.01H101.958C101.621 157.01 101.283 157.179 101.072 157.432L91.4002 169.511C91.1891 169.764 91.0201 169.849 90.8934 169.849C90.7245 169.849 90.64 169.68 90.64 169.258V157.559C90.64 157.221 90.4289 157.01 90.091 157.01H86.1211C85.7832 157.01 85.5721 157.221 85.5721 157.559ZM97.5662 176.733L104.746 186.151C104.957 186.404 105.295 186.573 105.633 186.573H110.616C110.954 186.573 111.039 186.404 110.87 186.151L100.607 172.932C100.438 172.678 100.142 172.678 99.9313 172.932L97.6085 175.846C97.3973 176.099 97.3551 176.479 97.5662 176.733ZM126.663 186.573H144.696C145.034 186.573 145.245 186.362 145.245 186.024V182.392C145.245 182.054 145.034 181.843 144.696 181.843H132.364C131.647 181.843 131.182 181.378 131.182 180.66V157.559C131.182 157.221 130.971 157.01 130.633 157.01H126.663C126.325 157.01 126.114 157.221 126.114 157.559V186.024C126.114 186.362 126.325 186.573 126.663 186.573ZM148.853 186.573H153.034C153.33 186.573 153.668 186.362 153.795 186.066L161.988 168.328C162.157 167.991 162.326 167.822 162.495 167.822C162.664 167.822 162.833 167.991 163.001 168.328L166.802 176.606C167.098 177.282 166.845 177.704 166.127 177.704H161.903C161.566 177.704 161.27 177.915 161.143 178.211L159.412 181.927C159.285 182.223 159.412 182.434 159.75 182.434H168.281C168.999 182.434 169.674 182.857 169.97 183.49L171.152 186.066C171.279 186.362 171.617 186.573 171.955 186.573H176.094C176.432 186.573 176.558 186.362 176.432 186.066L163.086 156.968C163.001 156.757 162.748 156.588 162.495 156.588C162.241 156.588 161.946 156.757 161.861 156.968L148.516 186.066C148.389 186.362 148.516 186.573 148.853 186.573ZM181.929 186.573H194.007C203.721 186.573 205.79 175.424 200.173 170.693C199.624 170.229 199.54 169.595 199.878 169.004C202.496 164.443 200.089 157.77 192.825 157.052C192.36 157.01 191.642 157.01 190.418 157.01H181.929C181.591 157.01 181.38 157.221 181.38 157.559V186.024C181.38 186.362 181.591 186.573 181.929 186.573ZM186.448 180.66V162.88C186.448 162.162 186.912 161.698 187.63 161.698H191.642C196.499 161.698 196.921 167.442 192.909 168.455C192.445 168.582 191.727 168.582 190.544 168.582H190.375C190.08 168.582 189.826 168.793 189.826 169.131V172.805C189.826 173.101 190.08 173.354 190.375 173.354H194.007C199.371 173.354 199.371 181.843 194.007 181.843H187.63C186.912 181.843 186.448 181.378 186.448 180.66ZM208.341 183.068C211.044 186.362 215.351 187.798 219.532 187.798C224.6 187.798 230.26 185.095 230.26 179.351C230.26 169.3 214.633 170.271 213.873 164.19C213.831 163.852 213.62 163.641 213.282 163.641H209.439C209.101 163.641 208.848 163.894 208.848 164.19C208.848 174.114 225.276 173.481 225.276 179.182C225.276 181.97 221.94 182.814 219.701 182.814C216.956 182.814 214.127 182.139 212.268 179.985C212.057 179.731 211.762 179.731 211.508 179.9L208.425 182.308C208.172 182.519 208.13 182.814 208.341 183.068ZM213.535 157.559L215.394 160.895C215.563 161.191 215.816 161.276 216.154 161.149C216.999 160.853 217.97 160.769 218.815 160.769C221.391 160.769 223.756 161.782 225.656 163.472C225.867 163.683 226.163 163.683 226.416 163.429L228.993 160.515C229.204 160.304 229.204 159.966 228.95 159.755C226.163 157.432 222.615 155.785 218.983 155.785C217.125 155.785 215.309 156.165 213.747 156.841C213.451 156.968 213.366 157.306 213.535 157.559Z" fill="white"/>
<defs>
<clipPath id="clip0_90_2169">
<rect width="142.249" height="139.538" fill="white" transform="translate(45.0793)"/>
</clipPath>
</defs>
</svg>
