<svg width="27" height="30" viewBox="0 0 27 30" fill="none"
	xmlns="http://www.w3.org/2000/svg">
	<path d="M13.5 22.5L6 15H10.5V9H16.5V15H21L13.5 22.5ZM27 21.75C27 22.32 26.685 22.815 26.205 23.07L14.355 29.73C14.115 29.91 13.815 30 13.5 30C13.185 30 12.885 29.91 12.645 29.73L0.795 23.07C0.315 22.815 0 22.32 0 21.75V8.25C0 7.68 0.315 7.185 0.795 6.93L12.645 0.27C12.885 0.0900001 13.185 0 13.5 0C13.815 0 14.115 0.0900001 14.355 0.27L26.205 6.93C26.685 7.185 27 7.68 27 8.25V21.75ZM13.5 3.225L3 9.135V20.865L13.5 26.775L24 20.865V9.135L13.5 3.225Z" fill="url(#paint0_linear_3_7883)"/>
	<defs>
		<linearGradient id="paint0_linear_3_7883" x1="0.390675" y1="0.65126" x2="27.6361" y2="27.8879" gradientUnits="userSpaceOnUse">
			<stop stop-color="#006DD2"/>
			<stop offset="1" stop-color="#CD4A00"/>
		</linearGradient>
	</defs>
</svg>
