<svg width="143" height="52" viewBox="0 0 143 52" fill="none"
	xmlns="http://www.w3.org/2000/svg">
	<path d="M6.84548 6.62728C12.3367 1.11761 1.35427 12.1369 12.3367 1.11761C57.0002 1.11761 86.2725 1.11761 131.018 1.11761C136.509 6.62728 131.018 1.11761 136.509 6.62728L142 12.1369V40.9294L137.04 45.9058L132.08 50.8823H10.9196L5.9598 45.9058L1 40.9294V12.4924L6.84548 6.62728Z" fill="url(#paint0_linear_5_2212)"/>
	<path d="M12.3367 1.11761C1.35427 12.1369 12.3367 1.11761 6.84548 6.62728L1 12.4924M12.3367 1.11761L1 12.4924M12.3367 1.11761C57.0002 1.11761 86.2725 1.11761 131.018 1.11761M1 12.4924V40.9294M1 40.9294L5.9598 45.9059L10.9196 50.8823M1 40.9294L10.9196 50.8823M10.9196 50.8823H132.08M131.018 1.11761C136.509 6.62728 131.018 1.11761 136.509 6.62728L142 12.1369M131.018 1.11761L142 12.1369M142 12.1369V40.9294M142 40.9294L137.04 45.9059L132.08 50.8823M142 40.9294L132.08 50.8823" stroke="white" stroke-width="1.84314"/>
	<defs>
		<linearGradient id="paint0_linear_5_2212" x1="3.04019" y1="2.19794" x2="29.1279" y2="84.2994" gradientUnits="userSpaceOnUse">
			<stop stop-color="#006DD2"/>
			<stop offset="1" stop-color="#CD4A00"/>
		</linearGradient>
	</defs>
</svg>
