<svg preserveAspectRatio="none" viewBox="0 0 805 62" fill="none" xmlns="http://www.w3.org/2000/svg">
	<path fill-rule="evenodd" clip-rule="evenodd"
		d="M120.057 1H1V33.0631L20.8643 60.9274H93.8813H711.119H784.136L804 33.0631V1H684.943H120.057Z"
		fill="#111111" />
	<path
		d="M1 1V0.5H0.5V1H1ZM1 33.0631H0.5V33.2231L0.592865 33.3533L1 33.0631ZM20.8643 60.9274L20.4572 61.2177L20.6067 61.4274H20.8643V60.9274ZM784.136 60.9274V61.4274H784.393L784.543 61.2177L784.136 60.9274ZM804 33.0631L804.407 33.3533L804.5 33.2231V33.0631H804ZM804 1H804.5V0.5H804V1ZM1 1.5H120.057V0.5H1V1.5ZM1.5 33.0631V1H0.5V33.0631H1.5ZM21.2715 60.6372L1.40713 32.7728L0.592865 33.3533L20.4572 61.2177L21.2715 60.6372ZM93.8813 60.4274H20.8643V61.4274H93.8813V60.4274ZM93.8813 61.4274H711.119V60.4274H93.8813V61.4274ZM711.119 61.4274H784.136V60.4274H711.119V61.4274ZM784.543 61.2177L804.407 33.3533L803.593 32.7728L783.729 60.6372L784.543 61.2177ZM804.5 33.0631V1H803.5V33.0631H804.5ZM804 0.5H684.943V1.5H804V0.5ZM684.943 0.5H120.057V1.5H684.943V0.5Z"
		fill="#006DD2" />
</svg>