<svg preserveAspectRatio="none" viewBox="0 0 337 49" fill="none" xmlns="http://www.w3.org/2000/svg">
	<path fill-rule="evenodd" clip-rule="evenodd"
		d="M50.6672 1H1V36.3758L9.28683 48H39.7475H297.241H327.702L335.988 36.3758V1H286.321H50.6672Z"
		fill="#111111" />
	<path
		d="M1 1V0.791414H0.791414V1H1ZM1 36.3758H0.791414V36.4425L0.830155 36.4969L1 36.3758ZM9.28683 48L9.11699 48.1211L9.17937 48.2086H9.28683V48ZM327.702 48V48.2086H327.809L327.871 48.1211L327.702 48ZM335.988 36.3758L336.158 36.4969L336.197 36.4425V36.3758H335.988ZM335.988 1H336.197V0.791414H335.988V1ZM1 1.20859H50.6672V0.791414H1V1.20859ZM1.20859 36.3758V1H0.791414V36.3758H1.20859ZM9.45668 47.8789L1.16984 36.2547L0.830155 36.4969L9.11699 48.1211L9.45668 47.8789ZM39.7475 47.7914H9.28683V48.2086H39.7475V47.7914ZM39.7475 48.2086H297.241V47.7914H39.7475V48.2086ZM297.241 48.2086H327.702V47.7914H297.241V48.2086ZM327.871 48.1211L336.158 36.4969L335.819 36.2547L327.532 47.8789L327.871 48.1211ZM336.197 36.3758V1H335.78V36.3758H336.197ZM335.988 0.791414H286.321V1.20859H335.988V0.791414ZM286.321 0.791414H50.6672V1.20859H286.321V0.791414Z"
		fill="#006DD2" />
</svg>